HIERARCHY
ROOT joint_Root
{
	OFFSET 0.0 0.0 0.0
	CHANNELS 6 Xposition Yposition Zposition Zrotation Xrotation Yrotation 
	JOINT Hips
	{
		OFFSET 4.5925 91.4895 -427.239
		CHANNELS 6 Xposition Yposition Zposition Zrotation Xrotation Yrotation 
		JOINT Spine
		{
			OFFSET 15.7357 0.0 0.0
			CHANNELS 6 Xposition Yposition Zposition Zrotation Xrotation Yrotation 
			JOINT Chest
			{
				OFFSET 8.98455 -0.406207 0.0
				CHANNELS 6 Xposition Yposition Zposition Zrotation Xrotation Yrotation 
				JOINT Neck
				{
					OFFSET 16.3773 0.0 0.0
					CHANNELS 6 Xposition Yposition Zposition Zrotation Xrotation Yrotation 
					JOINT Head
					{
						OFFSET 6.45672 0.0 0.0
						CHANNELS 6 Xposition Yposition Zposition Zrotation Xrotation Yrotation 
						End Site
						{
							OFFSET 0.0 0.0 0.0
						}
					}
				}
				JOINT Shoulder_L
				{
					OFFSET 12.9942 -0.242716 4.98039
					CHANNELS 6 Xposition Yposition Zposition Zrotation Xrotation Yrotation 
					JOINT UpperArm_L
					{
						OFFSET 5.34809 0.0 0.0
						CHANNELS 6 Xposition Yposition Zposition Zrotation Xrotation Yrotation 
						JOINT LowerArm_L
						{
							OFFSET 24.3286 1.87007e-05 0.0
							CHANNELS 6 Xposition Yposition Zposition Zrotation Xrotation Yrotation 
							JOINT Hand_L
							{
								OFFSET 22.2916 0.0 0.0
								CHANNELS 6 Xposition Yposition Zposition Zrotation Xrotation Yrotation 
								End Site
								{
									OFFSET 0.0 0.0 0.0
								}
							}
						}
					}
				}
				JOINT Shoulder_R
				{
					OFFSET 12.9945 -0.242716 -4.98039
					CHANNELS 6 Xposition Yposition Zposition Zrotation Xrotation Yrotation 
					JOINT UpperArm_R
					{
						OFFSET -5.34813 0.0 0.0
						CHANNELS 6 Xposition Yposition Zposition Zrotation Xrotation Yrotation 
						JOINT LowerArm_R
						{
							OFFSET -24.3289 0.000322201 0.0
							CHANNELS 6 Xposition Yposition Zposition Zrotation Xrotation Yrotation 
							JOINT Hand_R
							{
								OFFSET -22.2915 -0.000108084 0.0
								CHANNELS 6 Xposition Yposition Zposition Zrotation Xrotation Yrotation 
								End Site
								{
									OFFSET 0.0 0.0 0.0
								}
							}
						}
					}
				}
			}
		}
		JOINT UpperLeg_L
		{
			OFFSET -2.19248 -6.46944 0.0
			CHANNELS 6 Xposition Yposition Zposition Zrotation Xrotation Yrotation 
			JOINT LowerLeg_L
			{
				OFFSET 39.0811 0.0 -1.23785e-05
				CHANNELS 6 Xposition Yposition Zposition Zrotation Xrotation Yrotation 
				JOINT Foot_L
				{
					OFFSET 40.9854 0.0 -1.26872e-05
					CHANNELS 6 Xposition Yposition Zposition Zrotation Xrotation Yrotation 
					JOINT Toes_L
					{
						OFFSET 11.7543 0.0 0.0
						CHANNELS 6 Xposition Yposition Zposition Zrotation Xrotation Yrotation 
						End Site
						{
							OFFSET 0.0 0.0 0.0
						}
					}
				}
			}
		}
		JOINT UpperLeg_R
		{
			OFFSET -2.19251 6.46944 0.0
			CHANNELS 6 Xposition Yposition Zposition Zrotation Xrotation Yrotation 
			JOINT LowerLeg_R
			{
				OFFSET -39.0811 -0.00228153 -0.0401928
				CHANNELS 6 Xposition Yposition Zposition Zrotation Xrotation Yrotation 
				JOINT Foot_R
				{
					OFFSET -40.9854 0.0 0.0
					CHANNELS 6 Xposition Yposition Zposition Zrotation Xrotation Yrotation 
					JOINT Toes_R
					{
						OFFSET -11.7543 0.0 0.0
						CHANNELS 6 Xposition Yposition Zposition Zrotation Xrotation Yrotation 
						End Site
						{
							OFFSET 0.0 0.0 0.0
						}
					}
				}
			}
		}
	}
}
MOTION
Frames:	6
Frame Time:	0.0333333
0.000000 0.000000 0.000000 0.000000 0.000000 -0.000000 5.497290 85.566100 -514.544000 88.422500 2.595650 -2.053510 15.735700 0.000005 -0.000001 85.728900 82.767800 -87.324600 8.984550 -0.406207 -0.000000 6.646320 -1.058290 -3.126440 16.377300 -0.000001 -0.000001 -2.062030 -4.396520 0.033518 6.456720 -0.000001 -0.000000 -4.494690 -4.591950 4.245000 12.994200 -0.242716 4.980390 -90.915600 2.972440 -72.865500 5.348090 -0.000007 -0.000001 -60.801300 32.750700 -38.525100 24.328600 0.000019 0.000005 0.888133 0.008978 -89.359600 22.291600 -0.000001 0.000005 10.928500 5.520850 -7.415030 12.994500 -0.242716 -4.980390 87.976000 9.748820 -78.206200 -5.348130 -0.000001 -0.000004 -71.310100 39.736300 23.927600 -24.328900 0.000322 -0.000009 -23.888100 -18.880300 -53.853000 -22.291500 -0.000108 -0.000004 24.247900 5.580020 -10.217300 -2.192480 -6.469440 -0.000000 -174.376000 -6.574290 -17.799000 39.081100 -0.000007 -0.000012 -0.215523 0.181869 49.841500 40.985400 -0.000006 -0.000013 -0.084088 5.757460 -84.595000 11.754300 -0.000000 0.000003 0.001229 0.025332 -15.546400 -2.192510 6.469440 -0.000001 173.908000 12.218300 168.450000 -39.081100 -0.002282 -0.040193 0.301710 -0.111035 69.601900 -40.985400 0.000008 0.000006 7.013070 -11.658900 -54.462600 -11.754300 -0.000006 -0.000006 -0.019348 -0.163649 -23.258000
0.000000 0.000000 0.000000 0.000000 0.000000 -0.000000 5.384530 87.077500 -512.030000 87.805800 4.826020 -2.152550 15.735700 0.000005 -0.000001 73.561300 82.544400 -74.701000 8.984550 -0.406207 -0.000000 6.508320 -4.194330 -2.039020 16.377300 -0.000001 -0.000001 -1.510560 -3.598910 -0.385529 6.456720 -0.000001 -0.000000 -4.748700 -2.106290 3.521750 12.994200 -0.242716 4.980390 -89.891100 -0.342006 -72.357900 5.348090 -0.000007 -0.000001 -61.675300 30.735500 -48.141600 24.328600 0.000019 0.000005 -0.872634 0.135031 -98.518600 22.291600 -0.000001 0.000005 12.328500 5.506640 -6.803010 12.994500 -0.242716 -4.980390 88.549200 6.232900 -76.865600 -5.348130 -0.000001 -0.000004 -73.087100 41.950100 32.253100 -24.328900 0.000322 -0.000009 -19.999100 -12.473800 -59.322400 -22.291500 -0.000108 -0.000004 22.991900 5.587350 -10.616500 -2.192480 -6.469440 -0.000000 -173.329000 -4.877710 -13.166100 39.081100 -0.000007 -0.000012 -0.215621 0.230040 43.147400 40.985400 -0.000006 -0.000013 -0.373085 6.312730 -83.013600 11.754300 -0.000000 0.000003 0.001772 0.040560 -14.928500 -2.192510 6.469440 -0.000001 176.468000 12.587400 161.909000 -39.081100 -0.002282 -0.040193 0.318405 -0.083200 75.221800 -40.985400 0.000008 0.000006 6.396600 -11.298200 -56.677300 -11.754300 -0.000006 -0.000006 -0.019166 -0.162624 -23.215700
0.000000 0.000000 0.000000 0.000000 0.000000 -0.000000 5.236400 88.569500 -509.149000 86.942700 4.600690 -1.333880 15.735700 0.000005 -0.000001 67.143300 82.125900 -67.926000 8.984550 -0.406207 -0.000000 6.733470 -6.090250 -1.206250 16.377300 -0.000001 -0.000001 -0.736445 -3.097000 -0.387293 6.456720 -0.000001 -0.000000 -4.390030 -0.488502 3.052930 12.994200 -0.242716 4.980390 -89.028000 -2.918460 -71.574400 5.348090 -0.000007 -0.000001 -61.406600 26.779700 -54.289600 24.328600 0.000019 0.000005 -1.858850 0.572910 -107.140000 22.291600 -0.000001 0.000005 11.038900 5.492340 -6.226100 12.994500 -0.242716 -4.980390 89.338300 2.681270 -76.125000 -5.348130 -0.000001 -0.000004 -74.549800 43.577200 38.000100 -24.328900 0.000322 -0.000009 -19.516100 -9.204380 -65.709000 -22.291500 -0.000108 -0.000004 22.604000 5.591680 -10.858600 -2.192480 -6.469440 -0.000000 -172.061000 -5.743680 -6.258040 39.081100 -0.000007 -0.000012 -0.026548 0.037665 35.179300 40.985400 -0.000006 -0.000013 0.799131 6.591660 -81.440900 11.754300 -0.000000 0.000003 0.001625 0.034454 -15.179100 -2.192510 6.469440 -0.000001 178.930000 10.579200 157.067000 -39.081100 -0.002282 -0.040193 0.278306 -0.064419 76.831200 -40.985400 0.000008 0.000006 5.234150 -10.736200 -57.737700 -11.754300 -0.000006 -0.000006 -0.019309 -0.163433 -23.249100
0.000000 0.000000 0.000000 0.000000 0.000000 -0.000000 5.124140 89.700400 -506.681000 85.672700 4.178880 -2.607810 15.735700 0.000005 -0.000001 60.862600 82.383200 -60.939900 8.984550 -0.406207 -0.000000 5.571260 -7.398260 0.205831 16.377300 -0.000001 -0.000001 -0.016586 -2.843410 -0.378382 6.456720 -0.000001 -0.000000 -3.948700 0.322198 2.363930 12.994200 -0.242716 4.980390 -88.159700 -5.378560 -71.079200 5.348090 -0.000007 -0.000001 -63.395800 22.852000 -56.467700 24.328600 0.000019 0.000005 -1.651280 0.734999 -113.961000 22.291600 -0.000001 0.000005 8.587150 5.481960 -5.822320 12.994500 -0.242716 -4.980390 90.313800 -1.218330 -75.564100 -5.348130 -0.000001 -0.000004 -75.155500 42.770000 40.894800 -24.328900 0.000322 -0.000009 -19.042600 -6.731010 -71.247000 -22.291500 -0.000108 -0.000004 21.774700 5.595300 -11.068600 -2.192480 -6.469440 -0.000000 -170.503000 -6.383690 -2.743800 39.081100 -0.000007 -0.000012 -0.030613 0.055840 28.733300 40.985400 -0.000006 -0.000013 0.245253 6.938600 -78.473400 11.754300 -0.000000 0.000003 0.000628 0.011348 -16.116700 -2.192510 6.469440 -0.000001 -178.206000 9.363830 150.686000 -39.081100 -0.002282 -0.040193 0.231071 -0.059341 75.414500 -40.985400 0.000008 0.000006 4.528130 -9.984490 -59.471700 -11.754300 -0.000006 -0.000006 -0.018622 -0.159535 -23.088600
0.000000 0.000000 0.000000 0.000000 0.000000 -0.000000 5.041660 90.317600 -504.220000 84.821200 3.577640 -4.022810 15.735700 0.000005 -0.000001 56.498600 82.612100 -55.948700 8.984550 -0.406207 -0.000000 4.632540 -8.156190 1.430410 16.377300 -0.000001 -0.000001 0.282583 -2.560490 -0.245744 6.456720 -0.000001 -0.000000 -3.949180 0.653953 1.778250 12.994200 -0.242716 4.980390 -87.662500 -6.877770 -71.177400 5.348090 -0.000007 -0.000001 -64.206200 19.704700 -56.719900 24.328600 0.000019 0.000005 -3.513080 1.903120 -118.390000 22.291600 -0.000001 0.000005 9.130530 5.468540 -5.318350 12.994500 -0.242716 -4.980390 91.075300 -4.162750 -75.501100 -5.348130 -0.000001 -0.000004 -74.686800 39.716300 41.152600 -24.328900 0.000322 -0.000009 -17.231100 -4.587990 -75.539200 -22.291500 -0.000108 -0.000004 21.164400 5.602890 -11.516900 -2.192480 -6.469440 -0.000000 -169.603000 -7.234550 -0.161377 39.081100 -0.000007 -0.000012 -0.027724 0.062368 23.966600 40.985400 -0.000006 -0.000013 0.483808 6.701110 -75.929900 11.754300 -0.000000 0.000003 -0.000425 -0.006867 -16.856400 -2.192510 6.469440 -0.000001 -176.109000 8.770190 145.443000 -39.081100 -0.002282 -0.040193 0.181192 -0.061042 71.080700 -40.985400 0.000008 0.000006 4.112050 -9.007020 -60.798000 -11.754300 -0.000006 -0.000006 -0.019921 -0.166851 -23.389800
0.000000 0.000000 0.000000 0.000000 0.000000 -0.000000 5.084570 90.340500 -501.714000 84.766900 2.423620 -4.940460 15.735700 0.000005 -0.000001 54.304700 82.730500 -53.460100 8.984550 -0.406207 -0.000000 4.142410 -8.497070 1.997500 16.377300 -0.000001 -0.000001 0.093578 -2.336700 -0.170899 6.456720 -0.000001 -0.000000 -3.981360 0.981774 1.889680 12.994200 -0.242716 4.980390 -87.640200 -7.021870 -71.371200 5.348090 -0.000007 -0.000001 -62.897800 18.139100 -55.102300 24.328600 0.000019 0.000005 -5.910350 3.457980 -120.226000 22.291600 -0.000001 0.000005 10.220400 5.469350 -5.346320 12.994500 -0.242716 -4.980390 91.206400 -4.884460 -76.109100 -5.348130 -0.000001 -0.000004 -73.303400 36.353100 39.875600 -24.328900 0.000322 -0.000009 -17.925900 -3.381850 -79.661900 -22.291500 -0.000108 -0.000004 21.516800 5.609390 -11.915300 -2.192480 -6.469440 -0.000000 -169.321000 -9.756090 2.236860 39.081100 -0.000007 -0.000012 -0.031610 0.081197 21.270700 40.985400 -0.000006 -0.000013 0.705326 7.486650 -74.494000 11.754300 -0.000000 0.000003 -0.001321 -0.019865 -17.384600 -2.192510 6.469440 -0.000001 -175.068000 8.771720 142.046000 -39.081100 -0.002282 -0.040193 0.127106 -0.059878 64.213000 -40.985400 0.000008 0.000006 2.767470 -7.047220 -62.683700 -11.754300 -0.000006 -0.000006 -0.020654 -0.170884 -23.556000
